<?xml version="1.0" encoding="utf-8"?>
<!-- Generator: Adobe Illustrator 26.2.1, SVG Export Plug-In . SVG Version: 6.00 Build 0)  -->
<svg version="1.1" id="Layer_1" xmlns="http://www.w3.org/2000/svg" xmlns:xlink="http://www.w3.org/1999/xlink" x="0px" y="0px"
	 viewBox="0 0 60 60" style="enable-background:new 0 0 60 60;" xml:space="preserve">
<style type="text/css">
	.st0{fill:#10069F;enable-background:new    ;}
</style>
<g>
	<path d="M21.5,17.4l3.9-3.9c0.4-0.5,0.4-1.2,0-1.6l-0.8-0.8c-0.5-0.5-1.2-0.5-1.6,0l-1.4,1.4V9.6c0-0.6-0.5-1.2-1.2-1.2h-2.2
		c-0.6,0-1.2,0.5-1.2,1.2v2.9l-1.5-1.4c-0.5-0.5-1.2-0.5-1.6,0L13,11.9c-0.5,0.5-0.5,1.2,0,1.6l3.9,3.9v5.5L12,20.1l-1.4-5.4
		c-0.2-0.6-0.8-1-1.4-0.8L8,14.2c-0.6,0.2-1,0.8-0.8,1.4l0.5,2l-2.6-1.5c-0.6-0.3-1.3-0.1-1.6,0.4l-1.2,2c-0.3,0.6-0.1,1.3,0.4,1.6
		l2.6,1.5l-2,0.5c-0.6,0.2-1,0.8-0.8,1.4l0.3,1.1c0.2,0.6,0.8,1,1.4,0.8l5.4-1.4l4.8,2.8l-4.8,2.8l-5.4-1.4
		c-0.6-0.2-1.3,0.2-1.4,0.8l-0.3,1.1c-0.2,0.6,0.2,1.3,0.8,1.4l2,0.5l-2.6,1.5c-0.6,0.3-0.8,1-0.4,1.6l1.1,2
		c0.3,0.6,1.1,0.7,1.6,0.4l2.6-1.5l-0.5,2c-0.2,0.6,0.2,1.3,0.8,1.4L9,40c0.6,0.2,1.3-0.2,1.4-0.8l1.5-5.4l4.9-2.8v5.5L13,40.4
		c-0.4,0.5-0.4,1.2,0,1.6l0.8,0.8c0.5,0.5,1.2,0.5,1.6,0l1.4-1.4v2.9c0,0.6,0.5,1.2,1.2,1.2h2.2c0.6,0,1.2-0.5,1.2-1.2v-2.9l1.6,1.4
		c0.5,0.5,1.2,0.5,1.6,0l0.8-0.8c0.5-0.5,0.5-1.2,0-1.6l-3.9-3.9V31l6.6,3.8c0.5-1.3,1.1-2.5,1.9-3.6l0-0.7L23.9,27l6.1-3.5l0-5.4
		l-8.5,4.9V17.4z M45.4,36.5v-1.8c0-0.8-0.7-1.5-1.5-1.5c-0.8,0-1.5,0.7-1.5,1.5v1.8c-1.8,0.6-3.1,2.3-3.1,4.4
		c0,2.6,2.1,4.6,4.5,4.6c2.6,0,4.6-2.1,4.6-4.6C48.5,38.8,47.2,37.1,45.4,36.5z"/>
	<path class="st0" d="M54.7,32.2V16.1c0-6-4.8-10.8-10.7-10.8s-10.7,4.8-10.7,10.8v16.1c-1.9,2.4-3,5.4-3,8.6
		c0,7.7,6.2,13.8,13.8,13.8s13.7-6.1,13.7-13.8C57.8,37.6,56.6,34.6,54.7,32.2z M43.9,48.6c-4.3,0-7.7-3.5-7.7-7.6
		c0-2.5,1.2-4.7,3-6.2V16.2c0-2.6,2.1-4.6,4.5-4.6c2.5,0,4.5,2.1,4.5,4.6v18.6c1.9,1.4,3,3.7,3,6.2C51.6,45.1,48.2,48.6,43.9,48.6z"
		/>
</g>
</svg>
