<?xml version="1.0" encoding="utf-8"?>
<!-- Generator: Adobe Illustrator 26.2.1, SVG Export Plug-In . SVG Version: 6.00 Build 0)  -->
<svg version="1.1" id="Layer_1" xmlns="http://www.w3.org/2000/svg" xmlns:xlink="http://www.w3.org/1999/xlink" x="0px" y="0px"
	 viewBox="0 0 600 600" style="enable-background:new 0 0 600 600;" xml:space="preserve">
<style type="text/css">
	.st0{fill:#10069F;enable-background:new    ;}
</style>
<path d="M212,169.3l40.3-40.3c4.6-4.8,4.6-12.2,0-17l-8.5-8.5c-4.8-4.8-12.4-4.8-17,0L212,118.2V88c0-6.6-5.4-12-12-12h-23.1
	c-6.6,0-12,5.4-12,12v30.2l-15.6-14.8c-4.8-4.8-12.4-4.8-16.1,0l-9.4,8.5c-4.8,4.8-4.8,12.2,0,17l40.1,40.3v56.9L113.6,197l-15-55.8
	c-1.7-6.5-8.3-10.2-14.8-8.5L72,135.9c-6.5,1.8-10.3,8.4-8.6,14.9l5.5,20.5l-26.6-15.4c-5.8-3.4-13.1-1.4-16.5,4.4l-12.1,21
	c-3.4,5.8-1.4,13.2,4.4,16.6l26.6,15.4l-20.4,5.5c-6.5,1.6-10.4,8.4-8.6,14.9l3.1,11.6c1.6,6.5,8.4,10.4,14.9,8.6L89.3,239l50.2,29
	l-50.2,29l-55.6-15c-6.5-1.8-13.1,2.1-14.9,8.6l-3.1,11.7c-1.7,6.5,2.1,13.1,8.6,15l20.4,5.5l-26.5,15.4c-5.9,3.3-7.9,10.7-4.4,16.6
	l11.1,21c3.5,5.8,10.9,7.8,16.6,4.4l26.6-15.4l-5.5,20.5c-1.8,6.5,2.1,13,8.6,14.9l11.6,3.1c6.5,1.6,13.1-2.1,15-8.6l15.7-55.7
	l50.4-29.1v56.9L123.8,407c-4.6,4.8-4.6,12.2,0,17l8.5,8.5c4.7,4.8,12.4,4.8,16.1,0l14.9-14.8V448c0,6.6,5.4,12,12,12h23.1
	c6.6,0,12-5.4,12-12v-30.2l16.5,14.8c4.8,4.8,12.4,4.8,17,0l8.5-8.5c4.7-4.8,4.7-12.2,0-17L212,366.8v-56.9l68.3,39.5
	c5.1-13,11.5-25.7,19.7-37.6l0-7.1L236.6,268l63.4-36.7l0-56.1l-88,50.9V169.3z M460,366.9V348c0-8.8-7.3-16-16-16
	c-8.7,0-15.1,7.2-15.1,16v18.9c-18.6,6.6-32,24.2-32,45.1c0,26.5,21.5,48,47.1,48c26.5,0,48-21.5,48-48
	C492,391.1,478.6,373.5,460,366.9z"/>
<path class="st0" d="M556,322.5V156c0-61.9-50.1-112-111.1-112S333.8,94.1,333.8,156v166.5C314,347.1,302.7,378,302.7,412
	c0,79.5,64.5,143.1,143.1,143.1S588,491.5,588,412C588,378,575.8,347.1,556,322.5z M444,492c-44.1,0-80-35.9-80-79.1
	c0-25.5,12.2-48.9,31.1-63.8V156.9c0-26.5,21.5-48,47.1-48s47.1,21.5,47.1,48v192.2c19.8,14.8,31.1,38.2,31.1,63.8
	C524,456.1,488.1,492,444,492z"/>
</svg>
